<svg xmlns="http://www.w3.org/2000/svg" xmlns:xlink="http://www.w3.org/1999/xlink" width="206" height="28" version="1.1" viewBox="0 0 206 28"><title>Page 1</title><desc>Created with Sketch.</desc><defs><polygon id="path-1" points="0 .142 0 27.349 27.207 27.349 27.207 .142"/><polygon id="path-3" points="0 27.536 205.587 27.536 205.587 .33 0 .33"/></defs><g id="Page-1" fill="none" fill-rule="evenodd" stroke="none" stroke-width="1"><g id="Basic-Copy-7" transform="translate(-19.000000, -166.000000)"><g id="Page-1" transform="translate(19.074448, 165.838309)"><path id="Fill-1" fill="#FFF" d="M7.90975149,16.5105395 C7.86592741,15.5869388 8.17368446,12.4655443 13.2737525,9.95933434 C18.3741501,7.45345389 18.9016865,5.4306268 18.9016865,5.4306268 C18.3741501,8.20076972 17.494703,8.99256863 12.6582384,11.5864267 C8.04880232,14.0586977 7.90975149,16.5105395 7.90975149,16.5105395 Z"/><path id="Fill-3" fill="#FFF" d="M7.90975149,21.8305517 C7.90975149,21.8305517 8.04880232,19.3787099 12.6582384,16.9064389 C17.494703,14.3125808 18.3741501,13.5204524 18.9016865,10.750639 C18.9016865,10.750639 18.3741501,12.7734661 13.2737525,15.2793465 C8.17368446,17.785886 7.86592741,20.906951 7.90975149,21.8305517"/><g id="Group-7" transform="translate(0.000000, 0.187521)"><mask id="mask-2" fill="#fff"><use xlink:href="#path-1"/></mask><path id="Fill-5" fill="#FFF" d="M13.60385,1.52300197 C6.86383884,1.52300197 1.38088675,7.00595406 1.38088675,13.7459652 C1.38088675,20.4849878 6.86383884,25.9682694 13.60385,25.9682694 C20.3435316,25.9682694 25.8268131,20.4849878 25.8268131,13.7459652 C25.8268131,7.00595406 20.3435316,1.52300197 13.60385,1.52300197 M13.60385,27.3488925 C6.10202482,27.3488925 -6.59008664e-05,21.2468018 -6.59008664e-05,13.7459652 C-6.59008664e-05,6.24479905 6.10202482,0.142049318 13.60385,0.142049318 C21.1056751,0.142049318 27.2074363,6.24479905 27.2074363,13.7459652 C27.2074363,21.2468018 21.1056751,27.3488925 13.60385,27.3488925" mask="url(#mask-2)"/></g><polygon id="Fill-8" fill="#FFF" points="44.772 21.056 44.772 14.978 38.291 14.978 38.291 21.056 34.308 21.056 34.308 5.409 38.291 5.409 38.291 11.847 44.772 11.847 44.772 5.409 48.744 5.409 48.744 21.056"/><polygon id="Fill-10" fill="#FFF" points="54.729 8.541 54.729 11.651 62.193 11.651 62.193 14.782 54.729 14.782 54.729 17.924 63.24 17.924 63.24 21.056 50.747 21.056 50.747 5.409 63 5.409 63 8.541"/><polygon id="Fill-12" fill="#FFF" points="75.304 17.728 75.304 21.056 64.687 21.056 64.687 5.409 68.67 5.409 68.67 17.728"/><mask id="mask-4" fill="#fff"><use xlink:href="#path-3"/></mask><polygon id="Fill-14" fill="#FFF" points="76.074 21.056 80.057 21.056 80.057 5.409 76.074 5.409" mask="url(#mask-4)"/><polygon id="Fill-16" fill="#FFF" points="96.747 21.056 91.989 21.056 88.607 16.069 85.235 21.056 80.609 21.056 86.196 13.058 80.969 5.409 85.595 5.409 88.607 9.97 91.629 5.409 96.299 5.409 91.138 12.872" mask="url(#mask-4)"/><path id="Fill-17" fill="#FFF" d="M114.075158,14.70535 C114.075158,16.528827 113.584196,17.9565692 112.615783,18.9493658 C111.649676,19.9408443 110.265099,20.4433384 108.500603,20.4433384 C106.736108,20.4433384 105.349553,19.9408443 104.379163,18.9490363 C103.407784,17.9565692 102.915175,16.528827 102.915175,14.70535 L102.915175,5.26636889 L102.137875,5.26636889 L102.137875,14.70535 C102.137875,16.7703536 102.700998,18.3895379 103.811427,19.5180903 C104.922516,20.6476311 106.500183,21.2203096 108.500603,21.2203096 C110.501024,21.2203096 112.077043,20.6476311 113.184507,19.5177608 C114.290653,18.3892084 114.851799,16.7700241 114.851799,14.70535 L114.851799,5.26636889 L114.075158,5.26636889 L114.075158,14.70535 Z" mask="url(#mask-4)"/><polygon id="Fill-18" fill="#FFF" points="120.658 5.266 119.881 5.266 119.881 21.22 127.652 21.22 127.652 20.444 120.658 20.444" mask="url(#mask-4)"/><polygon id="Fill-19" fill="#FFF" points="128.327 6.043 133.685 6.043 133.685 21.221 134.462 21.221 134.462 6.043 139.83 6.043 139.83 5.266 128.327 5.266" mask="url(#mask-4)"/><polygon id="Fill-20" fill="#FFF" points="142.688 21.22 143.464 21.22 143.464 5.266 142.688 5.266" mask="url(#mask-4)"/><polygon id="Fill-21" fill="#FFF" points="163.465 5.172 163.417 5.266 162.883 5.266 156.437 18.008 149.994 5.356 149.948 5.266 149.393 5.266 149.344 5.172 149.344 5.266 148.897 5.266 148.897 21.22 149.674 21.22 149.674 6.541 156.248 19.407 156.293 19.497 156.539 19.497 163.137 6.541 163.158 21.22 163.935 21.22 163.935 5.266 163.465 5.266" mask="url(#mask-4)"/><path id="Fill-22" fill="#FFF" d="M170.050003,15.6861196 L174.280509,6.34994388 L178.603935,15.6861196 L170.050003,15.6861196 Z M174.635055,5.26620414 L173.932882,5.26620414 L166.731564,20.9871853 L166.624476,21.2204744 L167.532589,21.2204744 L169.693149,16.4627613 L178.963424,16.4627613 L181.145731,21.2204744 L182.021883,21.2204744 L174.679538,5.36176039 L174.635055,5.26620414 Z" mask="url(#mask-4)"/><polygon id="Fill-23" fill="#FFF" points="180.815 6.043 186.172 6.043 186.172 21.221 186.949 21.221 186.949 6.043 192.317 6.043 192.317 5.266 180.815 5.266" mask="url(#mask-4)"/><polygon id="Fill-24" fill="#FFF" points="195.952 20.443 195.952 13.397 204.244 13.397 204.244 12.62 195.952 12.62 195.952 6.043 205.27 6.043 205.27 5.266 195.175 5.266 195.175 21.22 205.587 21.22 205.587 20.443" mask="url(#mask-4)"/></g></g></g></svg>